<svg xmlns="http://www.w3.org/2000/svg" width="64" height="64" viewBox="0 0 64 64">
  <path d="M20 58 C 12 58, 8 50, 12 42 C 6 36, 8 26, 18 22 C 18 12, 30 8, 36 16 C 46 12, 54 20, 50 30 C 58 34, 56 46, 46 48 C 46 56, 34 60, 28 54 C 26 58, 22 58, 20 58 Z" fill="#7bc043" stroke="#3f6a19" stroke-width="2"/>
  <g fill="#4c9a3a" opacity="0.7">
    <circle cx="20" cy="30" r="4"/><circle cx="40" cy="24" r="5"/><circle cx="46" cy="40" r="4"/>
  </g>
  <circle cx="26" cy="34" r="3" fill="#0d3b17"/>
  <circle cx="38" cy="34" r="3" fill="#0d3b17"/>
  <path d="M24 44 q8 6 16 0" stroke="#0d3b17" stroke-width="2.5" fill="none" stroke-linecap="round"/>
  <g fill="#c8f04a" opacity="0.8">
    <circle cx="16" cy="46" r="2"/><circle cx="48" cy="20" r="2"/><circle cx="12" cy="22" r="1.6"/>
  </g>
</svg>
